<svg width="24" height="24" viewBox="0 0 24 24" fill="none" xmlns="http://www.w3.org/2000/svg">
<g clip-path="url(#clip0_40_32)">
<path fill-rule="evenodd" clip-rule="evenodd" d="M14.8524 12.0001L23.4093 3.44316C24.1969 2.65549 24.1969 1.37843 23.4093 0.590867C22.6216 -0.196805 21.3446 -0.196805 20.557 0.590867L12 9.14787L3.44297 0.590754C2.65529 -0.196918 1.37834 -0.196918 0.59067 0.590754C-0.19689 1.37843 -0.19689 2.65549 0.59067 3.44305L9.14767 11.9999L0.59067 20.5569C-0.19689 21.3446 -0.19689 22.6217 0.59067 23.4092C1.37834 24.1969 2.65529 24.1969 3.44297 23.4092L12 14.8522L20.557 23.4092C21.3445 24.1969 22.6216 24.1969 23.4093 23.4092C24.1969 22.6216 24.1969 21.3446 23.4093 20.5569L14.8524 12.0001Z" fill="#383838"/>
</g>
<defs>
<clipPath id="clip0_40_32">
<rect width="24" height="24" fill="white"/>
</clipPath>
</defs>
</svg>
