<svg width="24" height="24" viewBox="0 0 24 24" fill="none" xmlns="http://www.w3.org/2000/svg">
<g clip-path="url(#clip0_2_6591)">
<path d="M15.3 5.54999C14.54 5.54987 13.8103 5.84811 13.2679 6.38056C12.7255 6.913 12.4139 7.63709 12.4 8.39699L12.372 9.97199C12.3704 10.0566 12.3509 10.1398 12.3148 10.2163C12.2787 10.2928 12.2269 10.3608 12.1626 10.4159C12.0984 10.4709 12.0233 10.5118 11.9422 10.5358C11.8611 10.5597 11.7758 10.5663 11.692 10.555L10.131 10.343C8.077 10.063 6.109 9.11699 4.221 7.54399C3.623 10.854 4.791 13.147 7.604 14.916L9.351 16.014C9.434 16.0662 9.50296 16.1379 9.55184 16.2228C9.60072 16.3078 9.62804 16.4035 9.63139 16.5015C9.63475 16.5995 9.61404 16.6968 9.57109 16.7849C9.52814 16.873 9.46424 16.9493 9.385 17.007L7.793 18.17C8.74 18.229 9.639 18.187 10.385 18.039C15.103 17.097 18.24 13.547 18.24 7.69099C18.24 7.21299 17.228 5.54999 15.3 5.54999ZM10.4 8.35999C10.4175 7.39604 10.7189 6.45866 11.2666 5.66521C11.8142 4.87177 12.5838 4.25751 13.4789 3.89936C14.374 3.54121 15.3549 3.45507 16.2987 3.65174C17.2426 3.84841 18.1074 4.31914 18.785 5.00499C19.496 4.99999 20.101 5.17999 21.454 4.35999C21.119 5.99999 20.954 6.71199 20.24 7.69099C20.24 15.333 15.543 19.049 10.777 20C7.509 20.652 2.757 19.581 1.395 18.159C2.089 18.105 4.909 17.802 6.539 16.609C5.16 15.7 -0.329003 12.47 3.278 3.78599C4.971 5.76299 6.688 7.10899 8.428 7.82299C9.586 8.29799 9.87 8.28799 10.401 8.36099L10.4 8.35999Z" fill="#383838"/>
</g>
<defs>
<clipPath id="clip0_2_6591">
<rect width="24" height="24" fill="white"/>
</clipPath>
</defs>
</svg>
