<svg width="100" height="100" viewBox="0 0 100 100" fill="none" xmlns="http://www.w3.org/2000/svg">
<g clip-path="url(#clip0_64_36)">
<circle cx="2.5" cy="2.5" r="2.5" fill="#383838"/>
<circle cx="17.5" cy="2.5" r="2.5" fill="#383838"/>
<circle cx="32.5" cy="2.5" r="2.5" fill="#383838"/>
<circle cx="47.5" cy="2.5" r="2.5" fill="#383838"/>
<circle cx="62.5" cy="2.5" r="2.5" fill="#383838"/>
<circle cx="77.5" cy="2.5" r="2.5" fill="#383838"/>
<circle cx="92.5" cy="2.5" r="2.5" fill="#383838"/>
<circle cx="2.5" cy="17.5" r="2.5" fill="#383838"/>
<circle cx="17.5" cy="17.5" r="2.5" fill="#383838"/>
<circle cx="32.5" cy="17.5" r="2.5" fill="#383838"/>
<circle cx="47.5" cy="17.5" r="2.5" fill="#383838"/>
<circle cx="62.5" cy="17.5" r="2.5" fill="#383838"/>
<circle cx="77.5" cy="17.5" r="2.5" fill="#383838"/>
<circle cx="92.5" cy="17.5" r="2.5" fill="#383838"/>
<circle cx="2.5" cy="32.5" r="2.5" fill="#383838"/>
<circle cx="17.5" cy="32.5" r="2.5" fill="#383838"/>
<circle cx="32.5" cy="32.5" r="2.5" fill="#383838"/>
<circle cx="47.5" cy="32.5" r="2.5" fill="#383838"/>
<circle cx="62.5" cy="32.5" r="2.5" fill="#383838"/>
<circle cx="77.5" cy="32.5" r="2.5" fill="#383838"/>
<circle cx="92.5" cy="32.5" r="2.5" fill="#383838"/>
<circle cx="2.5" cy="47.5" r="2.5" fill="#383838"/>
<circle cx="17.5" cy="47.5" r="2.5" fill="#383838"/>
<circle cx="32.5" cy="47.5" r="2.5" fill="#383838"/>
<circle cx="47.5" cy="47.5" r="2.5" fill="#383838"/>
<circle cx="62.5" cy="47.5" r="2.5" fill="#383838"/>
<circle cx="77.5" cy="47.5" r="2.5" fill="#383838"/>
<circle cx="92.5" cy="47.5" r="2.5" fill="#383838"/>
<circle cx="2.5" cy="62.5" r="2.5" fill="#383838"/>
<circle cx="17.5" cy="62.5" r="2.5" fill="#383838"/>
<circle cx="32.5" cy="62.5" r="2.5" fill="#383838"/>
<circle cx="47.5" cy="62.5" r="2.5" fill="#383838"/>
<circle cx="62.5" cy="62.5" r="2.5" fill="#383838"/>
<circle cx="77.5" cy="62.5" r="2.5" fill="#383838"/>
<circle cx="92.5" cy="62.5" r="2.5" fill="#383838"/>
<circle cx="2.5" cy="77.5" r="2.5" fill="#383838"/>
<circle cx="17.5" cy="77.5" r="2.5" fill="#383838"/>
<circle cx="32.5" cy="77.5" r="2.5" fill="#383838"/>
<circle cx="47.5" cy="77.5" r="2.5" fill="#383838"/>
<circle cx="62.5" cy="77.5" r="2.5" fill="#383838"/>
<circle cx="77.5" cy="77.5" r="2.5" fill="#383838"/>
<circle cx="92.5" cy="77.5" r="2.5" fill="#383838"/>
<circle cx="2.5" cy="92.5" r="2.5" fill="#383838"/>
<circle cx="17.5" cy="92.5" r="2.5" fill="#383838"/>
<circle cx="32.5" cy="92.5" r="2.5" fill="#383838"/>
<circle cx="47.5" cy="92.5" r="2.5" fill="#383838"/>
<circle cx="62.5" cy="92.5" r="2.5" fill="#383838"/>
<circle cx="77.5" cy="92.5" r="2.5" fill="#383838"/>
<circle cx="92.5" cy="92.5" r="2.5" fill="#383838"/>
</g>
<defs>
<clipPath id="clip0_64_36">
<rect width="100" height="100" fill="white"/>
</clipPath>
</defs>
</svg>
