<svg width="93" height="93" viewBox="0 0 93 93" fill="none" xmlns="http://www.w3.org/2000/svg">
<mask id="path-1-inside-1_64_17" fill="white">
<path fill-rule="evenodd" clip-rule="evenodd" d="M92.0592 21.3485L70.7903 0.0795802L46.0649 24.8049L21.2746 0.0146742L0.00575597 21.2836L24.796 46.0738L0.0795967 70.7903L21.3485 92.0591L46.0649 67.3427L70.7164 91.9942L91.9853 70.7253L67.3338 46.0738L92.0592 21.3485Z"/>
</mask>
<path d="M70.7903 0.0795802L74.3258 -3.45595L70.7903 -6.99149L67.2547 -3.45595L70.7903 0.0795802ZM92.0592 21.3485L95.5947 24.884L99.1302 21.3485L95.5947 17.8129L92.0592 21.3485ZM46.0649 24.8049L42.5294 28.3405L46.0649 31.876L49.6004 28.3405L46.0649 24.8049ZM21.2746 0.0146742L24.8102 -3.52086L21.2746 -7.05639L17.7391 -3.52086L21.2746 0.0146742ZM0.00575597 21.2836L-3.52978 17.748L-7.06531 21.2836L-3.52978 24.8191L0.00575597 21.2836ZM24.796 46.0738L28.3316 49.6094L31.8671 46.0738L28.3316 42.5383L24.796 46.0738ZM0.0795967 70.7903L-3.45594 67.2547L-6.99147 70.7903L-3.45594 74.3258L0.0795967 70.7903ZM21.3485 92.0591L17.8129 95.5947L21.3485 99.1302L24.884 95.5947L21.3485 92.0591ZM46.0649 67.3427L49.6004 63.8072L46.0649 60.2716L42.5294 63.8072L46.0649 67.3427ZM70.7164 91.9942L67.1809 95.5298L70.7164 99.0653L74.252 95.5298L70.7164 91.9942ZM91.9853 70.7253L95.5208 74.2609L99.0564 70.7253L95.5208 67.1898L91.9853 70.7253ZM67.3338 46.0738L63.7983 42.5383L60.2627 46.0738L63.7983 49.6094L67.3338 46.0738ZM67.2547 3.61511L88.5236 24.884L95.5947 17.8129L74.3258 -3.45595L67.2547 3.61511ZM49.6004 28.3405L74.3258 3.61511L67.2547 -3.45595L42.5294 21.2694L49.6004 28.3405ZM17.7391 3.55021L42.5294 28.3405L49.6004 21.2694L24.8102 -3.52086L17.7391 3.55021ZM3.54129 24.8191L24.8102 3.55021L17.7391 -3.52086L-3.52978 17.748L3.54129 24.8191ZM28.3316 42.5383L3.54129 17.748L-3.52978 24.8191L21.2605 49.6094L28.3316 42.5383ZM3.61513 74.3258L28.3316 49.6094L21.2605 42.5383L-3.45594 67.2547L3.61513 74.3258ZM24.884 88.5236L3.61513 67.2547L-3.45594 74.3258L17.8129 95.5947L24.884 88.5236ZM42.5294 63.8072L17.8129 88.5236L24.884 95.5947L49.6004 70.8782L42.5294 63.8072ZM74.252 88.4587L49.6004 63.8072L42.5294 70.8782L67.1809 95.5298L74.252 88.4587ZM88.4498 67.1898L67.1809 88.4587L74.252 95.5298L95.5208 74.2609L88.4498 67.1898ZM63.7983 49.6094L88.4498 74.2609L95.5208 67.1898L70.8693 42.5383L63.7983 49.6094ZM88.5236 17.8129L63.7983 42.5383L70.8693 49.6094L95.5947 24.884L88.5236 17.8129Z" fill="#646AFF" mask="url(#path-1-inside-1_64_17)"/>
</svg>
