<svg width="200" height="200" viewBox="0 0 200 200" fill="none" xmlns="http://www.w3.org/2000/svg">
<g clip-path="url(#clip0_56_135)">
<path d="M170 64.9999C162.222 32.2221 133.333 9.44434 100 9.44434C60 9.44434 27.7778 41.6666 27.7778 81.6666C27.7778 119.444 57.2222 150.555 94.4445 153.333V181.111C94.4445 184.444 96.6667 186.667 100 186.667C103.333 186.667 105.556 184.444 105.556 181.111V153.333V142.222V122.222C105.556 122.222 105.556 122.222 105.556 121.667V101.667L131.667 75.5554C133.889 73.3332 133.889 69.9999 131.667 67.7777C129.444 65.5554 126.111 65.5554 123.889 67.7777L105.556 86.6666V69.9999L87.2222 51.6666C85 49.4443 81.6667 49.4443 79.4445 51.6666C77.2222 53.8888 77.2222 57.2221 79.4445 59.4443L94.4445 74.4443V108.889L73.3333 87.7777C71.1111 85.5554 67.7778 85.5554 65.5556 87.7777C63.3333 89.9999 63.3333 93.3332 65.5556 95.5554L94.4445 124.444V142.222C63.3333 139.444 38.8889 113.333 38.8889 81.6666C38.8889 47.7777 66.1111 20.5554 100 20.5554C133.889 20.5554 161.111 47.7777 161.111 81.6666C161.111 108.889 142.778 132.778 116.667 140.555V152.222C155.556 142.778 179.444 103.889 170 64.9999Z" fill="#383838" stroke="#383838" stroke-width="5.55556"/>
</g>
<defs>
<clipPath id="clip0_56_135">
<rect width="200" height="200" fill="white"/>
</clipPath>
</defs>
</svg>
